<?xml version="1.0" encoding="utf-8"?>
<svg width="461" height="461" viewBox="0 0 461 461" fill="none" xmlns="http://www.w3.org/2000/svg">
  <g clip-path="url(#clip0_19_142)" transform="matrix(1.36639, 0, 0, 1.36639, -84.452727, -84.453025)" style="">
    <mask id="mask0_19_142" style="mask-type:luminance" maskUnits="userSpaceOnUse" x="63" y="63" width="335" height="335">
      <path d="M380.615 304.482C421.466 221.575 387.373 121.25 304.466 80.399C221.559 39.5481 121.233 73.6413 80.3826 156.548C39.5317 239.455 73.6249 339.78 156.532 380.631C239.439 421.482 339.764 387.389 380.615 304.482Z" fill="white"/>
    </mask>
    <g mask="url(#mask0_19_142)">
      <path d="M318.898 372.602C397.379 323.782 421.423 220.583 372.602 142.102C323.782 63.6212 220.583 39.5769 142.102 88.3976C63.6214 137.218 39.5771 240.417 88.3978 318.898C137.218 397.379 240.417 421.423 318.898 372.602Z" fill="#F6C90E"/>
    </g>
    <mask id="mask1_19_142" style="mask-type:luminance" maskUnits="userSpaceOnUse" x="63" y="63" width="335" height="335">
      <path d="M318.896 372.599C397.375 323.78 421.419 220.583 372.599 142.104C323.78 63.6249 220.584 39.5811 142.104 88.4007C63.6251 137.22 39.5813 240.416 88.4009 318.896C137.221 397.375 240.417 421.419 318.896 372.599Z" fill="white"/>
    </mask>
    <g mask="url(#mask1_19_142)">
      <path d="M293.998 207.519C289.22 204.586 282.213 210.235 278.347 220.138C274.477 230.041 275.213 240.442 279.984 243.378C284.761 246.307 291.768 240.654 295.634 230.755C299.504 220.848 298.768 210.448 293.998 207.519Z" fill="#FEE69F"/>
      <path d="M167.021 207.519C171.791 204.586 178.806 210.235 182.675 220.138C186.541 230.041 185.809 240.442 181.031 243.378C176.254 246.307 169.247 240.654 165.377 230.755C161.511 220.848 162.243 210.448 167.021 207.519Z" fill="#FEE69F"/>
      <path d="M346.481 327.002C333.716 310.513 265.735 306.083 265.735 306.083H195.28C195.28 306.083 127.299 310.513 114.534 327.002C103.694 341.009 114.534 397.849 114.534 397.849H197.865H263.147H346.478C346.478 397.849 357.321 341.005 346.481 327.002Z" fill="#303841"/>
      <path d="M295.374 189.833C295.374 235.69 266.332 287.463 230.506 287.463C194.679 287.463 165.637 235.69 165.637 189.833C165.637 143.983 194.679 121.417 230.506 121.417C266.332 121.417 295.374 143.983 295.374 189.833Z" fill="#FEE69F"/>
      <path d="M259.621 236.44H201.394L195.284 306.079C195.284 313.782 211.055 320.028 230.509 320.028C249.967 320.028 265.739 313.782 265.739 306.079L259.621 236.44Z" fill="#FEE69F"/>
      <path opacity="0.1" d="M230.506 287.463C218.743 287.463 207.72 281.858 198.209 272.732L197.872 276.554C207.464 285.882 218.597 291.648 230.506 291.648C242.411 291.648 253.559 285.926 263.147 276.609L262.806 272.739C253.295 281.858 242.268 287.463 230.506 287.463Z" fill="black"/>
      <path d="M275.155 306.896C273.222 306.716 268.946 306.376 266.735 306.204L230.517 320.269L238.878 342.25L273.207 324.454L275.155 306.896Z" fill="white"/>
      <path d="M185.875 306.896C187.808 306.716 192.088 306.376 194.295 306.204L230.513 320.269L222.148 342.25L187.819 324.454L185.875 306.896Z" fill="white"/>
      <path d="M230.513 320.269L232.607 397.845H228.423L230.513 320.269Z" fill="#303841"/>
      <path d="M230.513 320.269L240.028 341.81L238.311 341.155L271.706 321.562L269.967 324.095L270.992 306.431L279.31 307.353L276.443 324.816L276.14 326.702L274.708 327.35L239.446 343.341L238.131 343.937L237.725 342.685L230.513 320.269Z" fill="#303841"/>
      <path d="M275.155 306.896C273.222 306.716 268.946 306.376 266.735 306.204L230.517 320.269L238.878 342.25L273.207 324.454L275.155 306.896Z" fill="#303841"/>
      <path d="M230.513 320.269L223.305 342.685L222.898 343.937L221.58 343.341L186.321 327.35L184.89 326.702L184.579 324.816L181.716 307.353L190.037 306.431L191.059 324.095L189.32 321.562L222.715 341.155L220.998 341.81L230.513 320.269Z" fill="#303841"/>
      <path d="M185.875 306.896C187.808 306.716 192.088 306.376 194.295 306.204L230.513 320.269L222.148 342.25L187.819 324.454L185.875 306.896Z" fill="#303841"/>
      <path opacity="0.4" d="M230.495 121.417V287.463C194.672 287.452 165.637 235.686 165.637 189.833C165.637 143.986 194.676 121.42 230.495 121.417Z" fill="white"/>
      <path d="M230.506 121.417C212.787 121.417 196.741 126.959 185.036 138.092C184.183 138.041 183.36 137.946 182.602 138.07C181.72 138.155 180.889 138.239 180.12 138.316C179.362 138.352 178.688 138.59 178.088 138.696C177.495 138.828 176.982 138.945 176.554 139.037C175.716 139.231 175.24 139.337 175.24 139.337C175.24 139.337 175.727 139.425 176.58 139.579C176.997 139.656 177.51 139.747 178.099 139.853C178.674 139.981 179.336 140.022 180.017 140.274C180.387 140.388 180.812 140.523 181.211 140.648C180.501 140.758 179.776 140.856 179.098 140.995C177.956 141.314 176.88 141.479 175.869 141.903C174.866 142.273 173.936 142.606 173.124 143.104C172.293 143.511 171.586 143.957 171.022 144.47C170.44 144.935 169.939 145.308 169.638 145.766C168.994 146.567 168.632 147.025 168.632 147.025C168.632 147.025 169.119 146.721 169.979 146.187C170.363 145.89 170.956 145.703 171.59 145.487C172.201 145.224 172.944 145.059 173.768 144.96C174.551 144.785 175.459 144.788 176.386 144.781C176.964 144.737 177.594 144.796 178.227 144.869C177.978 144.982 177.726 145.077 177.469 145.195C175.478 146.095 173.548 147.208 171.846 148.361C170.14 149.529 168.709 150.829 167.61 152.03C167.057 152.626 166.658 153.278 166.267 153.787C165.857 154.281 165.637 154.823 165.432 155.233C165.04 156.049 164.817 156.514 164.817 156.514C164.817 156.514 165.198 156.17 165.857 155.566C166.194 155.273 166.549 154.892 167.094 154.596C167.625 154.288 168.156 153.886 168.818 153.575C170.144 152.945 171.725 152.366 173.486 151.982C173.83 151.909 174.2 151.861 174.551 151.799C168.928 161.933 165.641 174.57 165.641 189.851C165.641 197.777 166.527 205.871 168.148 213.852H172.413C172.413 213.852 174.138 195.097 181.262 188.72C185.545 184.883 188.602 169.939 190.367 158.608C191.645 163.803 193.896 169.723 197.875 173.395C197.875 173.395 193.933 164.59 197.875 160.735C197.875 160.735 201.525 174.263 206.398 177.579C206.398 177.579 205.651 173.333 208.65 170.708C208.65 170.708 214.277 191.718 270.18 180.091C270.18 180.091 288.133 201.866 288.689 213.852H292.874C294.488 205.871 295.378 197.777 295.378 189.851C295.374 143.983 266.332 121.417 230.506 121.417Z" fill="#303030"/>
    </g>
  </g>
  <defs>
    <clipPath id="clip0_19_142">
      <rect width="461" height="461" fill="white"/>
    </clipPath>
  </defs>
</svg>